<mxfile host="app.diagrams.net" modified="2021-03-11T06:27:44.507Z" agent="5.0 (Windows NT 10.0; Win64; x64) AppleWebKit/537.36 (KHTML, like Gecko) Chrome/88.0.4324.190 Safari/537.36" etag="XZtlLM7thUqjVrFznTrt" version="14.4.7" type="github">
  <diagram id="HUyFoGSvFZwTVI5FrX0r" name="Page-1">
    <mxGraphModel dx="1360" dy="802" grid="1" gridSize="10" guides="1" tooltips="1" connect="1" arrows="1" fold="1" page="1" pageScale="1" pageWidth="827" pageHeight="1169" math="0" shadow="0">
      <root>
        <mxCell id="0" />
        <mxCell id="1" parent="0" />
        <mxCell id="CJEy0MjJ2VWo2G61ZyfJ-1" value="&lt;span style=&quot;font-size: 18px&quot;&gt;Result&amp;nbsp;&lt;br&gt;&lt;/span&gt;" style="rounded=0;whiteSpace=wrap;html=1;fillColor=#f8cecc;strokeColor=#b85450;" vertex="1" parent="1">
          <mxGeometry x="352" y="100" width="126" height="60" as="geometry" />
        </mxCell>
        <mxCell id="CJEy0MjJ2VWo2G61ZyfJ-7" value="" style="edgeStyle=orthogonalEdgeStyle;rounded=0;orthogonalLoop=1;jettySize=auto;html=1;" edge="1" parent="1" source="CJEy0MjJ2VWo2G61ZyfJ-2" target="CJEy0MjJ2VWo2G61ZyfJ-6">
          <mxGeometry relative="1" as="geometry" />
        </mxCell>
        <mxCell id="CJEy0MjJ2VWo2G61ZyfJ-2" value="value1&amp;nbsp;" style="ellipse;whiteSpace=wrap;html=1;rounded=0;fontSize=16;fillColor=#dae8fc;strokeColor=#6c8ebf;" vertex="1" parent="1">
          <mxGeometry x="150" y="490" width="120" height="80" as="geometry" />
        </mxCell>
        <mxCell id="CJEy0MjJ2VWo2G61ZyfJ-8" style="edgeStyle=orthogonalEdgeStyle;rounded=0;orthogonalLoop=1;jettySize=auto;html=1;" edge="1" parent="1" source="CJEy0MjJ2VWo2G61ZyfJ-4" target="CJEy0MjJ2VWo2G61ZyfJ-6">
          <mxGeometry relative="1" as="geometry" />
        </mxCell>
        <mxCell id="CJEy0MjJ2VWo2G61ZyfJ-4" value="value2&amp;nbsp;" style="ellipse;whiteSpace=wrap;html=1;rounded=0;fontSize=16;fillColor=#dae8fc;strokeColor=#6c8ebf;" vertex="1" parent="1">
          <mxGeometry x="570" y="490" width="120" height="80" as="geometry" />
        </mxCell>
        <mxCell id="CJEy0MjJ2VWo2G61ZyfJ-9" style="edgeStyle=orthogonalEdgeStyle;rounded=0;orthogonalLoop=1;jettySize=auto;html=1;entryX=0.5;entryY=1;entryDx=0;entryDy=0;" edge="1" parent="1" source="CJEy0MjJ2VWo2G61ZyfJ-6" target="CJEy0MjJ2VWo2G61ZyfJ-1">
          <mxGeometry relative="1" as="geometry" />
        </mxCell>
        <mxCell id="CJEy0MjJ2VWo2G61ZyfJ-6" value="&lt;font style=&quot;font-size: 19px&quot;&gt;Operation&lt;br&gt;&lt;b&gt;*&lt;/b&gt;&lt;br&gt;&lt;/font&gt;" style="rhombus;whiteSpace=wrap;html=1;rounded=0;fontSize=14;fillColor=#d5e8d4;strokeColor=#82b366;" vertex="1" parent="1">
          <mxGeometry x="330" y="250" width="170" height="120" as="geometry" />
        </mxCell>
      </root>
    </mxGraphModel>
  </diagram>
</mxfile>
